<svg id="Capa_1" enable-background="new 0 0 512 512" height="512" viewBox="0 0 512 512" width="512" xmlns="http://www.w3.org/2000/svg"><g><g><g><g><g><g><g><circle cx="256" cy="256" fill="#e06a24" r="256"/></g></g></g></g></g></g><path d="m512 256c0-18.648-1.994-36.83-5.78-54.345l-54.479-58.917-24.454 52.676-113.686-113.685-196.429 350.463 70.621 70.621c21.716 5.988 44.588 9.187 68.207 9.187 141.385 0 256-114.615 256-256z" fill="#c53d0e"/><g><path d="m295.161 439.318h-161.213c-12.885 0-23.33-10.445-23.33-23.33v-319.977c0-12.885 10.445-23.33 23.33-23.33h161.213c12.885 0 23.33 10.445 23.33 23.33v319.977c-.001 12.885-10.446 23.33-23.33 23.33z" fill="#717687"/></g><g><path d="m295.161 72.682h-83.403v366.637h83.403c12.885 0 23.33-10.445 23.33-23.33v-319.978c-.001-12.884-10.446-23.329-23.33-23.329z" fill="#575a65"/></g><g><path d="m132.098 104.181h164.912v303.637h-164.912z" fill="#fff"/></g><g><path d="m211.758 104.181h85.253v303.637h-85.253z" fill="#e9ecf4"/></g><g><path d="m451.741 328.681h-178.819l-61.164 60.125v-246.067h239.983z" fill="#f1cc30"/></g><g><path d="m331.347 142.739h120.394v185.943h-120.394z" fill="#ecb931"/></g><g><g><path d="m347.733 178.307v63.325h27.573v.242c-.232 1.216-1.164 5.281-3.773 9.154-4.587 6.808-12.384 10.117-23.838 10.117v35.752c46.581 0 61.775-34.268 63.301-52.388v-66.204h-63.263z" fill="#575a65"/></g><g><path d="m252.479 178.307v63.325h27.573v.242c-.232 1.216-1.164 5.281-3.773 9.154-4.587 6.808-12.384 10.117-23.838 10.117v35.752c46.581 0 61.775-34.268 63.301-52.388v-66.204h-63.263z" fill="#717687"/></g></g></g></svg>