<?xml version="1.0" encoding="iso-8859-1"?>
<!-- Generator: Adobe Illustrator 19.0.0, SVG Export Plug-In . SVG Version: 6.00 Build 0)  -->
<svg version="1.1" id="Capa_1" xmlns="http://www.w3.org/2000/svg" xmlns:xlink="http://www.w3.org/1999/xlink" x="0px" y="0px"
	 viewBox="0 0 512 512" style="enable-background:new 0 0 512 512;" xml:space="preserve">
<circle style="fill:#FF6838;" cx="256" cy="256" r="256"/>
<path style="fill:#AE4E32;" d="M273.556,511.389c127.391-8.63,229.203-110.442,237.833-237.833L445.5,207.667l-6.046,11.954
	L417.5,197.667l-6.941,56.667h-72.892l-38.519,38.519l-37.333-37.333l-30.565,30.565l-91.75-91.75L56,267.621l27.113,27.113
	L66.5,304.333L273.556,511.389z"/>
<polygon style="fill:#F2F2F2;" points="298.195,318.482 256,273.219 213.804,318.482 168.438,267.621 56,267.621 56,243.621 
	179.19,243.621 214.196,282.866 256,238.023 297.805,282.866 332.811,243.621 456,243.621 456,267.621 343.563,267.621 "/>
<polygon style="fill:#E6E6E6;" points="256,273.219 298.195,318.482 343.563,267.621 456,267.621 456,243.621 332.811,243.621 
	297.805,282.866 256,238.023 "/>
<rect x="66.5" y="204.33" style="fill:#333333;" width="29" height="100"/>
<g>
	<rect x="94.5" y="194.33" style="fill:#1A1A1A;" width="45" height="120"/>
	<rect x="416.5" y="207.67" style="fill:#1A1A1A;" width="29" height="100"/>
</g>
<rect x="372.5" y="197.67" width="45" height="120"/>
<g>
</g>
<g>
</g>
<g>
</g>
<g>
</g>
<g>
</g>
<g>
</g>
<g>
</g>
<g>
</g>
<g>
</g>
<g>
</g>
<g>
</g>
<g>
</g>
<g>
</g>
<g>
</g>
<g>
</g>
</svg>
